<svg width="119" height="112" viewBox="0 0 119 112" fill="none" xmlns="http://www.w3.org/2000/svg">
<g clip-path="url(#clip0_14_206)" filter="url(#filter0_d_14_206)">
<path d="M35.842 33.0219C34.3219 33.4318 33.0537 34.502 32.3664 35.9558C31.9828 36.7617 31.9435 36.9473 31.9435 38.1631C31.9435 39.3265 31.9828 39.5776 32.3002 40.2379C32.895 41.52 38.0886 49.4895 38.7496 50.1367C40.8113 52.1722 44.142 52.1584 46.1899 50.0967C47.7624 48.5242 48.2254 46.2375 47.3926 44.2289C47.0621 43.4361 41.5117 34.9118 40.9832 34.3833C39.648 33.0481 37.6794 32.5327 35.842 33.0219Z" fill="white"/>
<path d="M79.283 40.3435C78.5295 40.5416 78.0141 40.8328 73.4546 43.6742C71.0892 45.1542 68.935 46.5949 68.5783 46.9386C68.2347 47.2691 67.7586 47.9301 67.5343 48.3924C66.9927 49.4764 66.8602 51.1282 67.2301 52.2516C68.1816 55.1854 71.2873 56.7579 74.1418 55.754C75.054 55.4235 83.6438 50.0049 84.3579 49.3046C85.9705 47.692 86.3403 45.2343 85.2701 43.1325C84.7678 42.1279 83.5389 40.9915 82.5343 40.6085C81.6745 40.2773 80.0758 40.1448 79.283 40.3435Z" fill="white"/>
<path d="M50.9744 49.1189C48.1992 50.0042 46.4148 52.4226 46.4148 55.291C46.4148 57.1277 47.2608 59.0045 48.5952 60.0885C49.15 60.5377 56.3136 64.4894 58.1103 65.3353C61.7977 67.0665 66.1192 64.8599 66.9782 60.802C67.4405 58.6216 66.6215 56.1893 64.9565 54.7624C64.1768 54.1014 55.3621 49.3701 54.4499 49.1189C53.5908 48.894 51.6878 48.894 50.9744 49.1189Z" fill="white"/>
<path d="M36.3312 55.4096C35.6971 55.5814 34.9698 55.9513 34.3881 56.4274C33.9914 56.7448 31.7579 59.0577 27.6082 63.4454C26.3131 64.8199 25.8107 65.8114 25.7052 67.2121C25.4016 71.2431 29.6168 74.1901 33.2379 72.4851C34.2557 72.009 34.6517 71.6522 38.7489 67.3045C42.3438 63.5116 42.7668 62.9168 42.9648 61.4099C43.2954 59.0045 41.8809 56.4936 39.7136 55.6608C38.8552 55.3303 37.1509 55.2109 36.3312 55.4096Z" fill="white"/>
<path d="M77.1419 57.7088C74.4592 58.356 72.6217 61.1056 73.0978 63.7621C73.4677 65.8632 74.9877 67.542 77.0094 68.0836C78.1328 68.3741 87.5692 69.445 88.4807 69.3656C90.6349 69.2069 92.4061 67.74 93.0664 65.6127C93.8592 63.0749 92.6566 60.3659 90.2512 59.2426C89.4846 58.8859 88.9954 58.7934 83.9736 58.1855C80.9735 57.8288 78.357 57.5245 78.1583 57.5383C77.9609 57.5376 77.5118 57.6163 77.1419 57.7088Z" fill="white"/>
<path d="M65.3795 66.696C62.8155 67.5019 61.2167 70.0266 61.6259 72.6169C61.7977 73.6871 65.472 83.0573 66.0667 83.9294C68.3396 87.2601 73.507 86.7709 75.2651 83.0573C75.6481 82.2514 75.6881 82.0658 75.6881 80.85V79.5286L73.7319 74.5068C72.648 71.7447 71.5909 69.1938 71.3659 68.8502C70.7712 67.9118 69.7272 67.119 68.5638 66.7353C67.7848 66.4711 66.1461 66.458 65.3795 66.696Z" fill="white"/>
</g>
<defs>
<filter id="filter0_d_14_206" x="0" y="0" width="119" height="119" filterUnits="userSpaceOnUse" color-interpolation-filters="sRGB">
<feFlood flood-opacity="0" result="BackgroundImageFix"/>
<feColorMatrix in="SourceAlpha" type="matrix" values="0 0 0 0 0 0 0 0 0 0 0 0 0 0 0 0 0 0 127 0" result="hardAlpha"/>
<feOffset/>
<feGaussianBlur stdDeviation="12.5"/>
<feColorMatrix type="matrix" values="0 0 0 0 1 0 0 0 0 1 0 0 0 0 1 0 0 0 1 0"/>
<feBlend mode="normal" in2="BackgroundImageFix" result="effect1_dropShadow_14_206"/>
<feBlend mode="normal" in="SourceGraphic" in2="effect1_dropShadow_14_206" result="shape"/>
</filter>
</defs>
</svg>
