<svg width="103" height="99" viewBox="0 0 103 99" fill="none" xmlns="http://www.w3.org/2000/svg">
<g clip-path="url(#clip0_14_227)" filter="url(#filter0_d_14_227)">
<path d="M77.5741 43.1214C77.4306 42.7017 77.2765 42.4715 76.9516 42.2432C76.0412 41.5656 75.3893 41.5979 74.0692 42.3717C72.178 43.4948 70.7302 43.8928 69.0432 43.7853C67.9245 43.7218 66.4136 43.3687 65.2435 42.9168C64.9488 42.798 64.7009 42.738 64.6961 42.7801C64.6913 42.8222 64.8308 43.4644 65.0009 44.2064C65.1699 44.9586 65.3734 45.9694 65.4561 46.457C65.5903 47.3326 65.5982 47.3548 65.9567 47.47C66.1606 47.5463 67.132 47.6887 68.1075 47.7998C70.0802 48.0142 71.0106 47.9606 72.634 47.5083C74.3206 47.0631 76.7649 45.7484 77.317 45.004C77.7051 44.4853 77.8062 43.7852 77.5741 43.1214Z" fill="white"/>
<path d="M68.0351 34.8221L63.6496 29.3089L64.0199 28.9472C65.0276 27.9361 64.8707 26.4206 63.698 25.7131C63.2606 25.4507 63.0555 25.3852 62.6616 25.3933C61.9796 25.4113 61.5852 25.6107 60.7625 26.3985C58.2607 28.7796 56.9077 31.9819 56.9073 35.5301C56.9126 37.7191 57.1224 39.145 58.0734 43.2897C58.7088 46.1025 59.0689 48.2576 59.1301 49.6775C59.1557 50.1051 59.1337 50.4851 59.0976 50.5237C59.052 50.5502 58.0877 49.41 56.9529 47.9958L54.8901 45.4018L53.6665 44.9542C52.9945 44.6972 52.2167 44.4386 51.928 44.3631L51.4107 44.2402L55.0714 48.8423C58.6472 53.35 58.7297 53.4655 58.6193 53.7825C58.5028 54.1518 57.7466 55.3828 57.6414 55.3708C57.6101 55.3673 55.6182 52.8989 53.2206 49.8852C48.325 43.7301 48.8739 44.2277 47.8516 44.9929C47.5504 45.2138 47.2884 45.4599 47.2813 45.5225C47.2741 45.5857 49.2475 48.1258 51.6631 51.1633C55.8619 56.4536 56.0359 56.6964 55.8201 56.8205C55.4209 57.0619 54.7921 57.2663 54.308 57.3177L53.845 57.371L50.2283 52.8483L46.6219 48.3267L46.6009 49.0676C46.5861 49.4802 46.6083 50.2157 46.6466 50.7191L46.7129 51.6295L48.8673 54.3504L51.0103 57.0803L50.3372 56.9292C49.9643 56.8441 49.2016 56.6403 48.6487 56.4608C48.0838 56.2904 47.5995 56.1609 47.5749 56.1898C47.5412 56.2073 47.6765 56.8813 47.8504 57.6871C48.0356 58.4838 48.2312 59.4724 48.2905 59.883L48.3849 60.6371L48.8487 60.7643C49.7745 61.0288 52.9447 61.454 53.9448 61.4406C57.3901 61.4084 60.7611 59.1368 62.253 55.8334C62.7934 54.6307 63.045 53.4488 63.1746 51.3811C63.3446 48.8618 63.1993 47.6236 62.1201 42.5505C61.3185 38.7732 60.9035 36.2614 61.0579 36.12C61.0928 36.0922 61.785 36.9144 62.6229 37.9554L64.1302 39.827L64.964 40.1559C65.7869 40.4836 67.2517 40.9582 67.4827 40.9845C67.556 40.9929 66.1961 39.2234 64.4679 37.0506C62.7492 34.8899 61.346 33.0303 61.3567 32.9358C61.3842 32.6947 62.2105 31.036 62.2946 31.0456C62.3367 31.0504 64.1986 33.3553 66.4284 36.1585L70.4887 41.2631L70.9974 41.0871C71.6612 40.8545 72.3916 40.5026 72.4036 40.3974C72.4079 40.3553 70.4418 37.8472 68.0351 34.8221Z" fill="white"/>
<path d="M55.1239 41.4878C54.9609 40.6832 54.7791 39.664 54.7325 39.234C54.6641 38.7162 54.5731 38.3976 54.454 38.3206C54.1585 38.117 50.8907 37.6173 49.8287 37.6133C45.5503 37.5931 41.5545 40.5905 40.5959 44.528C40.3082 45.7485 40.0831 47.9113 40.0927 49.4099C40.1158 51.9087 40.446 54.4217 41.3413 58.9634C41.971 62.2008 42.0392 63.1859 41.7458 64.8304C41.3536 67.0588 40.6782 68.6073 39.5113 69.9933C38.8239 70.8075 38.7572 70.9272 38.6974 71.4517C38.6628 71.756 38.6788 72.1721 38.7415 72.37C38.8682 72.8414 39.4273 73.4358 39.9049 73.6285C40.9505 74.0553 41.7435 73.7106 42.9518 72.3398C45.2736 69.6726 46.4354 65.5347 45.9722 61.5838C45.9128 61.078 45.6308 59.4521 45.3343 57.9525C45.047 56.4643 44.7039 54.6303 44.5867 53.884C43.8913 49.6405 44.0881 45.9556 45.0828 44.4014C46.0265 42.9261 47.9033 41.8336 49.6917 41.7078C50.5054 41.6519 53.2397 42.176 54.4434 42.6105C54.9824 42.8206 55.4318 42.9783 55.4227 42.9664C55.4131 42.9549 55.2767 42.2911 55.1239 41.4878Z" fill="white"/>
<path d="M35.1556 60.8608C33.0281 58.1862 31.3162 55.9618 31.351 55.9341C31.3979 55.8968 31.9362 55.8308 32.5693 55.7755L33.7059 55.682L36.4931 59.1861C38.5465 61.7675 39.2784 62.6161 39.2975 62.4483C39.3118 62.3225 39.2186 61.462 39.0921 60.5234L38.872 58.8198L37.7769 57.4309L36.6807 56.0527L37.0916 56.1738C37.3177 56.2422 37.7051 56.382 37.959 56.4853C38.2021 56.5873 38.4168 56.6648 38.4282 56.6557C38.4294 56.6449 38.3013 55.8126 38.1406 54.7958C37.9684 53.7885 37.8106 52.7507 37.7755 52.5023C37.7198 52.0604 37.7102 52.0489 37.1225 51.8967C36.1114 51.6328 33.6809 51.4302 32.5781 51.5063C30.6826 51.6407 29.017 52.0882 27.5262 52.8639C26.2385 53.5353 25.5758 54.2245 25.4874 55.0004C25.4432 55.3883 25.6265 56.0148 25.8914 56.3953C26.2568 56.9152 26.6762 57.1537 27.3997 57.2362C27.8718 57.29 28.057 57.2476 28.553 56.9959C28.88 56.8315 29.1716 56.6947 29.2029 56.6983C29.245 56.7031 31.2555 59.1949 33.6713 62.2319C37.1555 66.6122 38.0813 67.7163 38.1798 67.6001C38.3156 67.4352 39.0001 65.9938 39.018 65.8368C39.0257 65.7742 37.2835 63.536 35.1556 60.8608Z" fill="white"/>
</g>
<defs>
<filter id="filter0_d_14_227" x="-2" y="-3.99994" width="107.162" height="107.162" filterUnits="userSpaceOnUse" color-interpolation-filters="sRGB">
<feFlood flood-opacity="0" result="BackgroundImageFix"/>
<feColorMatrix in="SourceAlpha" type="matrix" values="0 0 0 0 0 0 0 0 0 0 0 0 0 0 0 0 0 0 127 0" result="hardAlpha"/>
<feOffset/>
<feGaussianBlur stdDeviation="12.5"/>
<feColorMatrix type="matrix" values="0 0 0 0 1 0 0 0 0 1 0 0 0 0 1 0 0 0 1 0"/>
<feBlend mode="normal" in2="BackgroundImageFix" result="effect1_dropShadow_14_227"/>
<feBlend mode="normal" in="SourceGraphic" in2="effect1_dropShadow_14_227" result="shape"/>
</filter>
</defs>
</svg>
