<svg width="166" height="142" viewBox="0 0 166 142" fill="none" xmlns="http://www.w3.org/2000/svg">
<g filter="url(#filter0_d_16_234)">
<path d="M135.607 38.0708C135.434 36.2564 133.9 34.8632 132.075 34.8632H120.94C119.839 32.1524 117.225 30.0896 113.877 30.0896H52.112C48.7748 30.0896 46.1504 32.1524 45.0488 34.8632H33.914C32.0888 34.8632 30.5552 36.2456 30.3824 38.0708C29.9612 42.4988 29.6156 50.6852 31.8512 57.1544C33.5468 62.8244 39.8 69.8228 48.656 75.2336C50.7728 76.5296 52.8464 77.8256 54.8552 79.0676C56.0324 79.8236 57.2204 80.5472 58.4192 81.2492C61.1624 82.8908 63.7112 84.3272 66.0008 85.3532C68.4848 89.0576 70.958 92.4164 73.334 95.3432L73.5284 95.7212C73.8848 96.3368 74.3816 96.866 74.9972 97.3304C75.0512 97.3844 75.0944 97.4492 75.1484 97.5032H56.4968C52.5224 97.5032 49.2932 100.732 49.2932 104.707C49.2932 104.75 49.2932 104.793 49.2932 104.836V111.91H56.4968H109.492H116.696V104.836C116.696 104.793 116.696 104.75 116.696 104.707C116.696 100.732 113.467 97.5032 109.492 97.5032H90.8408C91.5644 97.0064 92.1584 96.4124 92.558 95.7212L92.9576 94.9544C95.258 92.1356 97.6448 88.9064 100.032 85.3424C102.3 84.3164 104.848 82.8908 107.581 81.2492C108.78 80.5472 109.968 79.8236 111.145 79.0676C113.143 77.8256 115.216 76.5296 117.344 75.2336C126.2 69.8228 132.453 62.8244 134.149 57.1544C136.374 50.6744 136.028 42.4988 135.607 38.0708ZM56.972 70.8812C56.27 70.4708 55.568 70.0388 54.8768 69.596C53.6996 68.8616 52.4792 68.1056 51.2264 67.3388C46.0208 64.1528 42.338 60.038 41.3336 56.7008C40.016 52.8884 40.2212 48.0716 40.4696 45.4688C40.5668 44.3996 41.474 43.5788 42.5432 43.5788H46.604L46.7552 43.8596C47.8244 50.4044 51.6584 60.3512 57.4904 71.1836C57.3176 71.0864 57.1448 70.9784 56.972 70.8812ZM124.666 56.69C123.673 60.0272 119.99 64.1528 114.774 67.328C113.521 68.0948 112.3 68.8508 111.123 69.5852C110.432 70.028 109.73 70.46 109.028 70.8704C108.888 70.9568 108.747 71.0324 108.618 71.1188C114.525 60.2 118.413 50.1668 119.504 43.568H123.457C124.537 43.568 125.433 44.3888 125.53 45.458C125.779 48.0608 125.984 52.8776 124.666 56.69Z" fill="url(#paint0_linear_16_234)"/>
</g>
<defs>
<filter id="filter0_d_16_234" x="-1" y="-13" width="168" height="168" filterUnits="userSpaceOnUse" color-interpolation-filters="sRGB">
<feFlood flood-opacity="0" result="BackgroundImageFix"/>
<feColorMatrix in="SourceAlpha" type="matrix" values="0 0 0 0 0 0 0 0 0 0 0 0 0 0 0 0 0 0 127 0" result="hardAlpha"/>
<feOffset/>
<feGaussianBlur stdDeviation="15"/>
<feColorMatrix type="matrix" values="0 0 0 0 1 0 0 0 0 1 0 0 0 0 1 0 0 0 0.25 0"/>
<feBlend mode="normal" in2="BackgroundImageFix" result="effect1_dropShadow_16_234"/>
<feBlend mode="normal" in="SourceGraphic" in2="effect1_dropShadow_16_234" result="shape"/>
</filter>
<linearGradient id="paint0_linear_16_234" x1="82.9949" y1="30.0896" x2="82.9949" y2="111.91" gradientUnits="userSpaceOnUse">
<stop stop-color="white"/>
<stop offset="0.947917" stop-color="#20C3C6" stop-opacity="0.34"/>
</linearGradient>
</defs>
</svg>
