<svg width="1109" height="294" viewBox="0 0 1109 294" fill="none" xmlns="http://www.w3.org/2000/svg">
<circle cx="1093.96" cy="147.667" r="15.0386" fill="#20C3C6"/>
<path d="M299.229 149.595C299.229 168.331 295.36 186.884 287.841 204.194C280.322 221.504 269.301 237.232 255.408 250.481C241.515 263.729 225.022 274.238 206.87 281.408C188.718 288.578 169.262 292.269 149.615 292.269C129.967 292.269 110.512 288.578 92.3596 281.408C74.2075 274.238 57.7141 263.729 43.8211 250.481C29.9281 237.232 18.9076 221.504 11.3887 204.194C3.8699 186.884 -1.71765e-06 168.331 0 149.595L29.9229 149.595C29.9229 164.584 33.0189 179.426 39.0339 193.274C45.049 207.122 53.8654 219.705 64.9799 230.303C76.0943 240.902 89.289 249.31 103.811 255.046C118.332 260.782 133.897 263.734 149.615 263.734C165.333 263.734 180.897 260.782 195.419 255.046C209.94 249.31 223.135 240.902 234.25 230.303C245.364 219.705 254.18 207.122 260.196 193.274C266.211 179.426 269.307 164.584 269.307 149.595H299.229Z" fill="url(#paint0_linear_414_35)"/>
<path d="M269.552 150.148C269.527 131.421 273.372 112.869 280.867 95.5543C288.363 78.2391 299.362 62.499 313.237 49.2326C327.112 35.9663 343.591 25.4335 361.733 18.2357C379.875 11.0378 399.325 7.31585 418.972 7.28231C438.619 7.24877 458.079 10.9043 476.24 18.0402C494.401 25.176 510.908 35.6525 524.818 48.8714C538.729 62.0904 549.77 77.7928 557.311 95.0823C564.853 112.372 568.747 130.91 568.772 149.638L538.85 149.689C538.83 134.706 535.715 119.876 529.681 106.044C523.648 92.2129 514.815 79.6509 503.687 69.0758C492.559 58.5006 479.353 50.1195 464.825 44.4108C450.296 38.7021 434.728 35.7776 419.01 35.8045C403.293 35.8313 387.733 38.8089 373.219 44.5671C358.705 50.3254 345.522 58.7516 334.422 69.3647C323.322 79.9778 314.523 92.5699 308.526 106.422C302.53 120.274 299.454 135.115 299.474 150.097L269.552 150.148Z" fill="url(#paint1_linear_414_35)"/>
<path d="M839.848 143.425C839.848 162.161 835.958 180.714 828.4 198.024C820.843 215.334 809.765 231.062 795.801 244.311C781.836 257.559 765.258 268.069 747.012 275.239C728.766 282.409 709.211 286.099 689.462 286.099C669.713 286.099 650.157 282.409 631.912 275.239C613.666 268.069 597.087 257.559 583.123 244.311C569.158 231.062 558.081 215.334 550.523 198.024C542.966 180.714 539.076 162.161 539.076 143.425L569.153 143.425C569.153 158.414 572.265 173.256 578.311 187.104C584.357 200.952 593.219 213.535 604.391 224.134C615.562 234.733 628.825 243.14 643.422 248.876C658.018 254.612 673.663 257.564 689.462 257.564C705.261 257.564 720.905 254.612 735.502 248.876C750.098 243.14 763.361 234.733 774.533 224.134C785.705 213.535 794.566 200.952 800.613 187.104C806.659 173.256 809.771 158.414 809.771 143.425H839.848Z" fill="url(#paint2_linear_414_35)"/>
<path d="M809.479 150.404C809.454 131.676 813.299 113.125 820.795 95.8096C828.291 78.4945 839.29 62.7544 853.165 49.488C867.04 36.2217 883.519 25.6889 901.661 18.491C919.803 11.2932 939.253 7.57122 958.9 7.53768C978.547 7.50414 998.007 11.1597 1016.17 18.2955C1034.33 25.4314 1050.84 35.9079 1064.75 49.1268C1078.66 62.3457 1089.7 78.0482 1097.24 95.3377C1104.78 112.627 1108.68 131.165 1108.7 149.893L1078.78 149.944C1078.76 134.962 1075.64 120.131 1069.61 106.3C1063.58 92.4683 1054.74 79.9063 1043.61 69.3311C1032.49 58.756 1019.28 50.3748 1004.75 44.6661C990.223 38.9574 974.656 36.033 958.938 36.0598C943.22 36.0867 927.66 39.0642 913.147 44.8225C898.633 50.5808 885.45 59.007 874.35 69.6201C863.25 80.2332 854.45 92.8253 848.454 106.677C842.457 120.53 839.381 135.37 839.401 150.353L809.479 150.404Z" fill="#20C3C6"/>
<ellipse cx="957.794" cy="140.108" rx="69.7945" ry="72.1081" fill="#20C3C6"/>
<ellipse cx="958.164" cy="140.006" rx="54.0053" ry="54.1113" fill="#494949"/>
<ellipse cx="15.0386" cy="148.053" rx="15.0386" ry="14.653" fill="#8C8C8C"/>
<defs>
<linearGradient id="paint0_linear_414_35" x1="13.5" y1="150" x2="281.5" y2="150" gradientUnits="userSpaceOnUse">
<stop stop-color="#8C8C8C"/>
<stop offset="1" stop-color="#20C3C6" stop-opacity="0.3"/>
</linearGradient>
<linearGradient id="paint1_linear_414_35" x1="288" y1="128.5" x2="568.999" y2="125.394" gradientUnits="userSpaceOnUse">
<stop stop-color="#20C3C6"/>
<stop offset="1" stop-color="#8C8C8C" stop-opacity="0.3"/>
</linearGradient>
<linearGradient id="paint2_linear_414_35" x1="551.5" y1="143" x2="824.5" y2="143" gradientUnits="userSpaceOnUse">
<stop stop-color="#D9D9D9"/>
<stop offset="1" stop-color="#20C3C6" stop-opacity="0.3"/>
</linearGradient>
</defs>
</svg>
